name C:/MyDriveSym/Projects/mobilecap/Data\Session20210819_0001\mocap\ForceDataProcessed\DJAsym3_forces.mot
datacolumns 28
datarows 20
range 1.94950000 1.95900000
endheader 
time	R_ground_force_vx	R_ground_force_vy	R_ground_force_vz	R_ground_force_px	R_ground_force_py	R_ground_force_pz	R_ground_torque_x	R_ground_torque_y	R_ground_torque_z	L_ground_force_vx	L_ground_force_vy	L_ground_force_vz	L_ground_force_px	L_ground_force_py	L_ground_force_pz	L_ground_torque_x	L_ground_torque_y	L_ground_torque_z	3_ground_force_vx	3_ground_force_vy	3_ground_force_vz	3_ground_force_px	3_ground_force_py	3_ground_force_pz	3_ground_torque_x	3_ground_torque_y	3_ground_torque_z	
          1.94950000	        -29.24526500	        507.02223600	        -69.49941100	         -0.15907800	          0.00600000	         -0.40141800	          0.00000000	         -1.07591300	          0.00000000	        -58.38107400	        549.54274800	         92.03760800	         -0.10820200	          0.00600000	         -0.73518600	          0.00000000	          0.55314000	          0.00000000	          0.00000000	          0.00000000	          0.00000000	          0.00000000	          0.00000000	          0.00000000	          0.00000000	          0.00000000	          0.00000000	
          1.95000000	        -29.49257900	        507.21546500	        -69.51053400	         -0.15890900	          0.00600000	         -0.40139400	          0.00000000	         -1.06095100	          0.00000000	        -58.54817600	        549.68176600	         91.94451200	         -0.10804000	          0.00600000	         -0.73518800	          0.00000000	          0.54806100	          0.00000000	          0.00000000	          0.00000000	          0.00000000	          0.00000000	          0.00000000	          0.00000000	          0.00000000	          0.00000000	          0.00000000	
          1.95050000	        -29.74445600	        507.40658000	        -69.52062800	         -0.15873900	          0.00600000	         -0.40137100	          0.00000000	         -1.04590600	          0.00000000	        -58.71996100	        549.81641200	         91.84967400	         -0.10787700	          0.00600000	         -0.73518900	          0.00000000	          0.54296300	          0.00000000	          0.00000000	          0.00000000	          0.00000000	          0.00000000	          0.00000000	          0.00000000	          0.00000000	          0.00000000	          0.00000000	
          1.95100000	        -30.00081800	        507.59569800	        -69.52953800	         -0.15856900	          0.00600000	         -0.40134700	          0.00000000	         -1.03081800	          0.00000000	        -58.89619000	        549.94682800	         91.75313500	         -0.10771500	          0.00600000	         -0.73519100	          0.00000000	          0.53783500	          0.00000000	          0.00000000	          0.00000000	          0.00000000	          0.00000000	          0.00000000	          0.00000000	          0.00000000	          0.00000000	          0.00000000	
          1.95150000	        -30.26159300	        507.78293300	        -69.53711100	         -0.15839900	          0.00600000	         -0.40132200	          0.00000000	         -1.01572200	          0.00000000	        -59.07662500	        550.07315500	         91.65496500	         -0.10755200	          0.00600000	         -0.73519400	          0.00000000	          0.53266300	          0.00000000	          0.00000000	          0.00000000	          0.00000000	          0.00000000	          0.00000000	          0.00000000	          0.00000000	          0.00000000	          0.00000000	
          1.95200000	        -30.52671700	        507.96840900	        -69.54319300	         -0.15822800	          0.00600000	         -0.40129800	          0.00000000	         -1.00065300	          0.00000000	        -59.26102300	        550.19552100	         91.55524800	         -0.10739000	          0.00600000	         -0.73519600	          0.00000000	          0.52744000	          0.00000000	          0.00000000	          0.00000000	          0.00000000	          0.00000000	          0.00000000	          0.00000000	          0.00000000	          0.00000000	          0.00000000	
          1.95250000	        -30.79612500	        508.15224700	        -69.54762200	         -0.15805700	          0.00600000	         -0.40127300	          0.00000000	         -0.98564100	          0.00000000	        -59.44912600	        550.31405900	         91.45407100	         -0.10722700	          0.00600000	         -0.73519900	          0.00000000	          0.52216700	          0.00000000	          0.00000000	          0.00000000	          0.00000000	          0.00000000	          0.00000000	          0.00000000	          0.00000000	          0.00000000	          0.00000000	
          1.95300000	        -31.06975100	        508.33452500	        -69.55022400	         -0.15788700	          0.00600000	         -0.40124800	          0.00000000	         -0.97071600	          0.00000000	        -59.64065600	        550.42891100	         91.35151000	         -0.10706400	          0.00600000	         -0.73520300	          0.00000000	          0.51685300	          0.00000000	          0.00000000	          0.00000000	          0.00000000	          0.00000000	          0.00000000	          0.00000000	          0.00000000	          0.00000000	          0.00000000	
          1.95350000	        -31.34751100	        508.51525800	        -69.55081500	         -0.15771600	          0.00600000	         -0.40122300	          0.00000000	         -0.95590000	          0.00000000	        -59.83531800	        550.54020200	         91.24763500	         -0.10690100	          0.00600000	         -0.73520600	          0.00000000	          0.51151300	          0.00000000	          0.00000000	          0.00000000	          0.00000000	          0.00000000	          0.00000000	          0.00000000	          0.00000000	          0.00000000	          0.00000000	
          1.95400000	        -31.62929800	        508.69441000	        -69.54921000	         -0.15754600	          0.00600000	         -0.40119800	          0.00000000	         -0.94121400	          0.00000000	        -60.03281200	        550.64804200	         91.14249800	         -0.10673800	          0.00600000	         -0.73521000	          0.00000000	          0.50615800	          0.00000000	          0.00000000	          0.00000000	          0.00000000	          0.00000000	          0.00000000	          0.00000000	          0.00000000	          0.00000000	          0.00000000	
          1.95450000	        -31.91497300	        508.87193100	        -69.54523100	         -0.15737500	          0.00600000	         -0.40117200	          0.00000000	         -0.92667800	          0.00000000	        -60.23284800	        550.75253700	         91.03614400	         -0.10657500	          0.00600000	         -0.73521500	          0.00000000	          0.50080000	          0.00000000	          0.00000000	          0.00000000	          0.00000000	          0.00000000	          0.00000000	          0.00000000	          0.00000000	          0.00000000	          0.00000000	
          1.95500000	        -32.20437600	        509.04779600	        -69.53870100	         -0.15720600	          0.00600000	         -0.40114700	          0.00000000	         -0.91231800	          0.00000000	        -60.43515800	        550.85379000	         90.92861000	         -0.10641200	          0.00600000	         -0.73521900	          0.00000000	          0.49544300	          0.00000000	          0.00000000	          0.00000000	          0.00000000	          0.00000000	          0.00000000	          0.00000000	          0.00000000	          0.00000000	          0.00000000	
          1.95550000	        -32.49732500	        509.22201000	        -69.52945400	         -0.15703700	          0.00600000	         -0.40112100	          0.00000000	         -0.89815600	          0.00000000	        -60.63949300	        550.95190500	         90.81992100	         -0.10624900	          0.00600000	         -0.73522400	          0.00000000	          0.49008300	          0.00000000	          0.00000000	          0.00000000	          0.00000000	          0.00000000	          0.00000000	          0.00000000	          0.00000000	          0.00000000	          0.00000000	
          1.95600000	        -32.79361900	        509.39460900	        -69.51733800	         -0.15686900	          0.00600000	         -0.40109500	          0.00000000	         -0.88421600	          0.00000000	        -60.84561700	        551.04697500	         90.71009400	         -0.10608600	          0.00600000	         -0.73522900	          0.00000000	          0.48471500	          0.00000000	          0.00000000	          0.00000000	          0.00000000	          0.00000000	          0.00000000	          0.00000000	          0.00000000	          0.00000000	          0.00000000	
          1.95650000	        -33.09304200	        509.56562900	        -69.50221600	         -0.15670100	          0.00600000	         -0.40106900	          0.00000000	         -0.87051400	          0.00000000	        -61.05329900	        551.13907600	         90.59914500	         -0.10592300	          0.00600000	         -0.73523400	          0.00000000	          0.47933200	          0.00000000	          0.00000000	          0.00000000	          0.00000000	          0.00000000	          0.00000000	          0.00000000	          0.00000000	          0.00000000	          0.00000000	
          1.95700000	        -33.39536800	        509.73509000	        -69.48397300	         -0.15653500	          0.00600000	         -0.40104300	          0.00000000	         -0.85706100	          0.00000000	        -61.26231600	        551.22825200	         90.48710300	         -0.10576100	          0.00600000	         -0.73523900	          0.00000000	          0.47392400	          0.00000000	          0.00000000	          0.00000000	          0.00000000	          0.00000000	          0.00000000	          0.00000000	          0.00000000	          0.00000000	          0.00000000	
          1.95750000	        -33.70035700	        509.90298700	        -69.46250700	         -0.15636900	          0.00600000	         -0.40101600	          0.00000000	         -0.84386500	          0.00000000	        -61.47245300	        551.31450300	         90.37400300	         -0.10559900	          0.00600000	         -0.73524400	          0.00000000	          0.46848200	          0.00000000	          0.00000000	          0.00000000	          0.00000000	          0.00000000	          0.00000000	          0.00000000	          0.00000000	          0.00000000	          0.00000000	
          1.95800000	        -34.00775500	        510.06930800	        -69.43773700	         -0.15620400	          0.00600000	         -0.40099000	          0.00000000	         -0.83092800	          0.00000000	        -61.68351000	        551.39780200	         90.25989300	         -0.10543700	          0.00600000	         -0.73525000	          0.00000000	          0.46299400	          0.00000000	          0.00000000	          0.00000000	          0.00000000	          0.00000000	          0.00000000	          0.00000000	          0.00000000	          0.00000000	          0.00000000	
          1.95850000	        -34.31728700	        510.23403700	        -69.40959200	         -0.15604000	          0.00600000	         -0.40096400	          0.00000000	         -0.81825200	          0.00000000	        -61.89529500	        551.47811200	         90.14482800	         -0.10527500	          0.00600000	         -0.73525500	          0.00000000	          0.45745100	          0.00000000	          0.00000000	          0.00000000	          0.00000000	          0.00000000	          0.00000000	          0.00000000	          0.00000000	          0.00000000	          0.00000000	
          1.95900000	        -34.62865200	        510.39716600	        -69.37801800	         -0.15587700	          0.00600000	         -0.40093800	          0.00000000	         -0.80583900	          0.00000000	        -62.10762300	        551.55538900	         90.02886900	         -0.10511400	          0.00600000	         -0.73526100	          0.00000000	          0.45184800	          0.00000000	          0.00000000	          0.00000000	          0.00000000	          0.00000000	          0.00000000	          0.00000000	          0.00000000	          0.00000000	          0.00000000	
